<?xml version="1.0" encoding="utf-8"?>
<!-- Generator: Adobe Illustrator 19.1.0, SVG Export Plug-In . SVG Version: 6.00 Build 0)  -->
<!DOCTYPE svg PUBLIC "-//W3C//DTD SVG 1.1//EN" "http://www.w3.org/Graphics/SVG/1.1/DTD/svg11.dtd">
<svg version="1.1" id="Layer_1" xmlns="http://www.w3.org/2000/svg" xmlns:xlink="http://www.w3.org/1999/xlink" x="0px" y="0px"
	 viewBox="-299 221 40 40" style="enable-background:new -299 221 40 40;" xml:space="preserve">
<style type="text/css">
	.st0{fill:#404B63;}
</style>
<g id="_x31__3_">
	<g>
		<path class="st0" d="M-263.2,253.2l-8.8-8.8l-8.8,8.8c-1.1,1.1-2.6,0.9-3.4,0s-0.9-2.6,0-3.4l8.8-8.8l-8.8-8.8
			c-1.1-1.1-0.9-2.6,0-3.4c1.1-1.1,2.6-0.9,3.4,0l8.8,8.8l8.8-8.8c1.1-1.1,2.6-0.9,3.4,0s0.9,2.6,0,3.4l-8.8,8.8l8.8,8.8
			c1.1,1.1,0.9,2.6,0,3.4C-260.6,254.4-262.1,254.2-263.2,253.2z"/>
	</g>
</g>
</svg>
