<?xml version="1.0" encoding="utf-8"?>
<!-- Generator: Adobe Illustrator 19.1.0, SVG Export Plug-In . SVG Version: 6.00 Build 0)  -->
<!DOCTYPE svg PUBLIC "-//W3C//DTD SVG 1.1//EN" "http://www.w3.org/Graphics/SVG/1.1/DTD/svg11.dtd">
<svg version="1.1" id="Layer_1" xmlns="http://www.w3.org/2000/svg" xmlns:xlink="http://www.w3.org/1999/xlink" x="0px" y="0px"
	 viewBox="-299 221 40 40" style="enable-background:new -299 221 40 40;" xml:space="preserve">
<style type="text/css">
	.st0{fill:#FFFFFF;}
</style>
<g id="_x37__2_">
	<g>
		<path class="st0" d="M-279,227.4c-0.6,0-1.1,0.5-1.1,1.1v11.4h-9.1c-0.6,0-1.1,0.5-1.1,1.1c0,0.6,0.5,1.1,1.1,1.1h10.2
			c0.6,0,1.1-0.5,1.1-1.1v-12.5C-277.9,227.9-278.4,227.4-279,227.4z M-279,222.8c-10,0-18.2,8.1-18.2,18.2c0,10,8.1,18.2,18.2,18.2
			s18.2-8.1,18.2-18.2C-260.8,231-269,222.8-279,222.8z M-279,256.9c-8.8,0-15.9-7.1-15.9-15.9c0-8.8,7.1-15.9,15.9-15.9
			s15.9,7.1,15.9,15.9C-263.1,249.8-270.2,256.9-279,256.9z"/>
	</g>
</g>
</svg>
