<?xml version="1.0" encoding="utf-8"?>
<!-- Generator: Adobe Illustrator 19.1.0, SVG Export Plug-In . SVG Version: 6.00 Build 0)  -->
<!DOCTYPE svg PUBLIC "-//W3C//DTD SVG 1.1//EN" "http://www.w3.org/Graphics/SVG/1.1/DTD/svg11.dtd">
<svg version="1.1" id="Layer_1" xmlns="http://www.w3.org/2000/svg" xmlns:xlink="http://www.w3.org/1999/xlink" x="0px" y="0px"
	 viewBox="-299 221 40 40" style="enable-background:new -299 221 40 40;" xml:space="preserve">
<style type="text/css">
	.st0{fill:#FFFFFF;}
</style>
<g id="_x31_0_2_">
	<g>
		<path class="st0" d="M-294.3,238.5c-1.4,0-2.5,1.1-2.5,2.5s1.1,2.5,2.5,2.5s2.5-1.1,2.5-2.5S-292.9,238.5-294.3,238.5z
			 M-294.3,248.6c-1.4,0-2.5,1.1-2.5,2.5s1.1,2.5,2.5,2.5s2.5-1.1,2.5-2.5S-292.9,248.6-294.3,248.6z M-285.4,232.1h22.9
			c0.7,0,1.3-0.6,1.3-1.3c0-0.7-0.6-1.3-1.3-1.3h-22.9c-0.7,0-1.3,0.6-1.3,1.3C-286.6,231.5-286.1,232.1-285.4,232.1z M-262.4,249.9
			h-22.9c-0.7,0-1.3,0.6-1.3,1.3c0,0.7,0.6,1.3,1.3,1.3h22.9c0.7,0,1.3-0.6,1.3-1.3C-261.2,250.5-261.7,249.9-262.4,249.9z
			 M-262.4,239.7h-22.9c-0.7,0-1.3,0.6-1.3,1.3c0,0.7,0.6,1.3,1.3,1.3h22.9c0.7,0,1.3-0.6,1.3-1.3
			C-261.2,240.3-261.7,239.7-262.4,239.7z M-294.3,228.3c-1.4,0-2.5,1.1-2.5,2.5c0,1.4,1.1,2.5,2.5,2.5s2.5-1.1,2.5-2.5
			C-291.7,229.4-292.9,228.3-294.3,228.3z"/>
	</g>
</g>
</svg>
